<?xml version="1.0" standalone="no"?>
<!DOCTYPE svg PUBLIC "-//W3C//DTD SVG 20010904//EN"
 "http://www.w3.org/TR/2001/REC-SVG-20010904/DTD/svg10.dtd">
<svg version="1.0" xmlns="http://www.w3.org/2000/svg"
 width="400.000000pt" height="400.000000pt" viewBox="0 0 400.000000 400.000000"
 preserveAspectRatio="xMidYMid meet">

<g transform="translate(0.000000,400.000000) scale(0.100000,-0.100000)"
fill="white" stroke="black">
<path d="M1725 3984 c-367 -50 -738 -215 -1020 -454 -376 -319 -615 -751 -690
-1245 -20 -134 -20 -435 1 -574 42 -287 145 -561 302 -801 329 -504 848 -826
1455 -901 140 -17 441 -7 582 20 397 74 743 253 1029 530 188 183 294 327 405
552 308 620 276 1343 -85 1938 -140 231 -371 468 -608 625 -242 161 -542 272
-839 311 -143 18 -394 18 -532 -1z m85 -804 l0 -210 468 -2 467 -3 3 -472 2
-473 450 0 450 0 0 -50 0 -50 -450 0 -450 0 0 -445 0 -445 -475 0 -475 0 -2
-207 -3 -208 -492 -3 -493 -2 0 50 0 50 440 0 440 0 0 370 0 370 -440 0 -440
0 0 55 0 55 493 -2 492 -3 3 -213 2 -212 423 2 422 3 3 863 2 862 -420 0 -420
0 0 -210 0 -210 -492 2 -493 3 0 50 0 50 443 3 442 2 0 370 0 370 -445 0 -445
0 0 43 c0 24 3 47 7 50 3 4 226 7 495 7 l488 0 0 -210z"/>
</g>
</svg>
